<?xml version="1.0" encoding="UTF-8" ?>
<!DOCTYPE svg PUBLIC "-//W3C//DTD SVG 1.1//EN" "http://www.w3.org/Graphics/SVG/1.1/DTD/svg11.dtd">
<svg width="1024pt" height="1024pt" viewBox="0 0 1024 1024" version="1.1" xmlns="http://www.w3.org/2000/svg">
<g id="#ffffffff">
</g>
<g id="#bb3b3bff">
<path fill="#bb3b3b" opacity="1.00" d=" M 377.78 310.76 C 391.10 298.59 409.04 291.85 427.05 291.74 C 480.70 291.71 534.35 291.74 588.01 291.74 C 603.29 291.98 618.38 297.28 630.60 306.42 C 648.24 319.80 659.10 341.84 658.48 364.02 C 658.56 417.01 658.54 469.99 658.48 522.98 C 659.03 542.36 651.28 561.90 637.46 575.53 C 623.71 589.17 604.30 596.33 585.05 596.24 C 572.61 596.16 560.17 596.34 547.73 596.20 L 547.33 594.59 C 560.88 594.27 574.44 594.52 587.99 594.29 C 606.42 593.46 624.87 586.13 637.57 572.52 C 644.59 563.79 652.07 554.19 653.22 542.68 C 646.62 547.83 641.34 556.37 632.02 556.52 C 598.97 556.56 565.90 556.76 532.85 556.31 C 533.35 558.87 534.17 561.37 534.41 563.98 C 532.10 561.25 529.91 558.14 530.27 554.38 C 563.16 554.73 596.07 554.47 628.97 554.55 C 634.91 554.60 640.67 551.93 644.91 547.85 C 652.12 540.90 654.33 529.22 649.83 520.22 C 634.93 493.66 618.75 467.83 603.48 441.48 C 600.36 435.71 595.01 431.58 588.93 429.31 C 583.25 386.53 547.40 350.27 505.18 342.52 C 495.92 340.61 486.42 341.15 477.04 341.21 C 457.24 342.67 438.14 350.44 422.34 362.36 C 405.95 374.44 394.10 391.84 386.69 410.64 C 386.66 408.83 386.26 406.93 387.14 405.25 C 390.24 397.98 394.32 391.18 398.66 384.60 C 407.58 369.70 422.19 359.44 437.02 351.04 C 447.48 345.09 459.25 341.99 471.05 340.04 C 482.58 337.41 494.51 338.89 506.03 340.78 C 516.95 342.62 527.15 347.14 537.01 352.01 C 551.39 359.96 563.38 371.66 573.28 384.66 C 578.81 391.81 581.91 400.40 585.54 408.59 C 587.91 414.03 589.21 419.83 590.49 425.60 C 591.01 428.70 594.28 429.80 596.53 431.43 C 601.53 434.47 604.50 439.69 607.46 444.55 C 615.54 457.28 622.23 470.84 630.60 483.39 C 638.89 496.26 645.17 510.52 654.91 522.41 C 657.02 513.06 656.36 503.44 656.46 493.94 C 656.44 449.28 656.48 404.62 656.45 359.96 C 655.88 343.19 647.99 327.48 637.10 315.02 C 630.13 307.36 620.73 302.62 611.37 298.53 C 601.78 294.55 591.24 293.39 580.93 293.66 C 531.62 293.60 482.31 293.64 433.00 293.65 C 420.44 293.43 407.52 295.25 396.29 301.17 C 389.29 304.89 382.15 308.76 376.67 314.61 C 369.51 322.68 363.99 332.13 360.04 342.15 C 355.85 354.99 356.92 368.70 356.65 382.00 C 356.82 386.59 356.07 391.32 357.25 395.82 C 358.70 397.61 361.07 398.40 362.97 399.66 L 362.13 400.79 C 359.66 400.33 357.23 399.73 354.77 399.25 C 354.76 398.87 354.72 398.12 354.71 397.75 C 354.53 386.15 354.69 374.55 354.69 362.96 C 354.72 343.33 363.41 324.08 377.78 310.76 Z" />
</g>
<g id="#ec2b2bff">
<path fill="#ec2b2b" opacity="1.00" d=" M 396.29 301.17 C 407.52 295.25 420.44 293.43 433.00 293.65 C 482.31 293.64 531.62 293.60 580.93 293.66 C 591.24 293.39 601.78 294.55 611.37 298.53 C 620.73 302.62 630.13 307.36 637.10 315.02 C 647.99 327.48 655.88 343.19 656.45 359.96 C 656.48 404.62 656.44 449.28 656.46 493.94 C 656.36 503.44 657.02 513.06 654.91 522.41 C 645.17 510.52 638.89 496.26 630.60 483.39 C 622.23 470.84 615.54 457.28 607.46 444.55 C 604.50 439.69 601.53 434.47 596.53 431.43 C 594.28 429.80 591.01 428.70 590.49 425.60 C 589.21 419.83 587.91 414.03 585.54 408.59 C 581.91 400.40 578.81 391.81 573.28 384.66 C 563.38 371.66 551.39 359.96 537.01 352.01 C 527.15 347.14 516.95 342.62 506.03 340.78 C 494.51 338.89 482.58 337.41 471.05 340.04 C 459.25 341.99 447.48 345.09 437.02 351.04 C 422.19 359.44 407.58 369.70 398.66 384.60 C 394.32 391.18 390.24 397.98 387.14 405.25 C 386.26 406.93 386.66 408.83 386.69 410.64 L 386.65 410.79 C 384.23 410.65 381.71 410.51 379.64 409.13 C 374.04 405.85 367.84 403.82 362.13 400.79 L 362.97 399.66 C 361.07 398.40 358.70 397.61 357.25 395.82 C 356.07 391.32 356.82 386.59 356.65 382.00 C 356.92 368.70 355.85 354.99 360.04 342.15 C 363.99 332.13 369.51 322.68 376.67 314.61 C 382.15 308.76 389.29 304.89 396.29 301.17 Z" />
<path fill="#ec2b2b" opacity="1.00" d=" M 632.02 556.52 C 641.34 556.37 646.62 547.83 653.22 542.68 C 652.07 554.19 644.59 563.79 637.57 572.52 C 624.87 586.13 606.42 593.46 587.99 594.29 C 574.44 594.52 560.88 594.27 547.33 594.59 C 544.25 583.93 539.08 574.01 534.41 563.98 C 534.17 561.37 533.35 558.87 532.85 556.31 C 565.90 556.76 598.97 556.56 632.02 556.52 Z" />
</g>
<g id="#fefefcff">
<path fill="#fefefc" opacity="1.00" d=" M 422.34 362.36 C 438.14 350.44 457.24 342.67 477.04 341.21 C 486.42 341.15 495.92 340.61 505.18 342.52 C 547.40 350.27 583.25 386.53 588.93 429.31 C 595.01 431.58 600.36 435.71 603.48 441.48 C 618.75 467.83 634.93 493.66 649.83 520.22 C 654.33 529.22 652.12 540.90 644.91 547.85 C 640.67 551.93 634.91 554.60 628.97 554.55 C 596.07 554.47 563.16 554.73 530.27 554.38 C 525.39 553.41 520.98 550.95 517.28 547.69 C 514.11 548.61 510.93 549.49 507.69 550.11 C 497.52 549.86 487.36 552.84 477.23 550.89 C 471.74 549.75 466.16 549.21 460.57 548.86 C 426.93 540.03 398.54 513.80 386.79 481.11 C 382.24 467.28 379.61 452.56 381.24 438.00 C 381.54 432.52 382.74 427.15 383.57 421.74 C 384.58 418.09 385.61 414.44 386.65 410.79 L 386.69 410.64 C 394.10 391.84 405.95 374.44 422.34 362.36 M 465.89 349.80 C 463.57 350.26 461.29 350.87 459.04 351.57 C 443.44 356.40 428.78 364.54 417.09 376.01 C 406.88 386.44 398.34 398.71 393.53 412.58 C 391.99 417.40 389.85 422.26 389.70 427.36 C 388.71 430.09 388.44 433.00 388.34 435.89 C 385.81 456.08 390.45 476.95 400.53 494.56 C 407.75 507.32 418.12 517.96 429.81 526.68 C 453.40 543.93 485.25 550.04 513.27 541.25 C 510.97 536.35 510.17 530.65 511.53 525.38 C 512.62 520.73 515.34 516.74 517.73 512.68 C 523.25 503.70 528.35 494.47 533.68 485.38 C 540.98 473.40 547.94 461.16 555.11 449.08 C 558.61 443.52 561.40 437.27 566.66 433.08 C 571.01 429.90 576.27 428.31 581.65 428.27 C 580.58 422.88 579.49 417.42 577.32 412.35 C 576.29 407.51 573.60 403.10 571.31 398.74 C 560.35 378.77 542.25 362.97 521.16 354.45 C 503.63 347.83 484.28 345.93 465.89 349.80 M 568.92 445.96 C 563.83 454.61 558.27 463.04 553.95 472.11 C 552.99 472.79 552.57 474.00 551.91 474.94 C 544.16 488.16 536.55 501.46 528.63 514.59 C 526.60 518.19 524.26 521.64 522.53 525.41 C 520.74 529.26 521.43 533.79 523.11 537.56 C 523.37 537.98 523.91 538.82 524.17 539.25 C 526.93 542.27 530.76 544.47 534.98 544.24 C 565.97 544.36 596.96 544.25 627.95 544.26 C 633.10 544.33 638.29 541.27 640.29 536.44 C 642.38 532.17 641.98 526.93 639.50 522.91 C 633.26 511.73 626.28 500.97 620.07 489.78 C 614.84 480.49 609.18 471.45 603.64 462.35 C 600.04 456.55 597.12 450.35 593.24 444.73 C 591.68 442.42 589.39 440.70 586.82 439.67 L 585.58 439.47 C 579.37 437.45 572.02 440.13 568.92 445.96 Z" />
</g>
<g id="#1b964aff">
<path fill="#1b964a" opacity="1.00" d=" M 465.89 349.80 C 484.28 345.93 503.63 347.83 521.16 354.45 C 542.25 362.97 560.35 378.77 571.31 398.74 C 573.60 403.10 576.29 407.51 577.32 412.35 C 575.99 417.19 579.52 421.61 578.88 426.51 C 574.24 427.56 569.71 429.15 565.72 431.80 C 565.96 432.12 566.43 432.76 566.66 433.08 C 561.40 437.27 558.61 443.52 555.11 449.08 C 547.94 461.16 540.98 473.40 533.68 485.38 C 515.82 490.82 496.73 493.18 478.15 490.83 C 481.99 484.19 486.70 478.05 489.89 471.04 C 494.71 460.62 498.10 449.43 499.20 437.98 C 499.28 432.30 500.86 426.65 499.61 421.00 C 499.52 408.17 495.96 395.56 490.97 383.81 C 488.00 376.63 483.60 370.17 478.94 364.00 C 475.10 358.80 469.55 355.15 465.89 349.80 M 516.22 377.25 C 510.90 379.08 508.95 385.87 511.38 390.67 C 514.08 396.20 519.87 399.00 524.42 402.77 C 529.12 406.26 532.92 410.74 536.86 415.04 C 539.94 418.40 544.60 420.99 549.27 419.94 C 553.35 419.10 556.64 415.28 556.57 411.07 C 556.59 405.32 553.16 400.34 549.79 395.98 C 544.44 389.38 537.92 383.60 530.39 379.61 C 526.09 377.48 520.97 375.37 516.22 377.25 Z" />
</g>
<g id="#77693dff">
<path fill="#77693d" opacity="1.00" d=" M 459.04 351.57 C 461.29 350.87 463.57 350.26 465.89 349.80 C 469.55 355.15 475.10 358.80 478.94 364.00 C 483.60 370.17 488.00 376.63 490.97 383.81 C 495.96 395.56 499.52 408.17 499.61 421.00 C 500.86 426.65 499.28 432.30 499.20 437.98 C 498.10 449.43 494.71 460.62 489.89 471.04 C 486.70 478.05 481.99 484.19 478.15 490.83 C 477.92 490.74 477.45 490.56 477.21 490.48 C 476.74 490.29 475.79 489.91 475.32 489.72 C 488.81 472.19 497.56 450.32 496.81 427.97 C 496.96 418.07 496.79 408.01 493.91 398.45 C 493.46 396.97 493.36 395.43 493.30 393.91 C 492.77 393.65 492.24 393.39 491.73 393.13 C 490.48 386.36 486.59 380.47 483.38 374.50 C 477.79 366.60 471.75 358.88 464.32 352.61 C 462.92 351.17 460.82 351.60 459.04 351.57 Z" />
</g>
<g id="#ec2b2cff">
<path fill="#ec2b2c" opacity="1.00" d=" M 417.09 376.01 C 428.78 364.54 443.44 356.40 459.04 351.57 C 460.82 351.60 462.92 351.17 464.32 352.61 C 471.75 358.88 477.79 366.60 483.38 374.50 C 486.59 380.47 490.48 386.36 491.73 393.13 C 492.24 393.39 492.77 393.65 493.30 393.91 C 493.36 395.43 493.46 396.97 493.91 398.45 C 496.79 408.01 496.96 418.07 496.81 427.97 C 497.56 450.32 488.81 472.19 475.32 489.72 C 474.76 490.23 474.21 490.76 473.67 491.30 C 460.79 488.40 447.93 484.85 436.05 479.00 C 426.28 473.39 416.02 468.12 408.18 459.85 C 401.72 453.24 394.55 446.86 390.60 438.33 C 389.81 434.74 390.86 430.94 389.70 427.36 C 389.85 422.26 391.99 417.40 393.53 412.58 C 398.34 398.71 406.88 386.44 417.09 376.01 M 430.38 394.71 C 419.70 396.02 411.58 404.33 406.22 413.09 C 402.38 419.80 403.20 427.66 403.57 435.05 C 405.09 444.99 411.73 453.46 419.93 458.96 C 427.41 463.56 436.47 462.74 444.86 462.40 C 450.76 460.84 456.16 457.62 460.98 453.94 C 468.99 444.83 473.72 432.07 470.73 419.99 C 467.97 412.38 463.77 404.85 457.00 400.11 C 449.20 394.92 439.56 393.46 430.38 394.71 Z" />
</g>
<g id="#fefffdff">
<path fill="#fefffd" opacity="1.00" d=" M 516.22 377.25 C 520.97 375.37 526.09 377.48 530.39 379.61 C 537.92 383.60 544.44 389.38 549.79 395.98 C 553.16 400.34 556.59 405.32 556.57 411.07 C 556.64 415.28 553.35 419.10 549.27 419.94 C 544.60 420.99 539.94 418.40 536.86 415.04 C 532.92 410.74 529.12 406.26 524.42 402.77 C 519.87 399.00 514.08 396.20 511.38 390.67 C 508.95 385.87 510.90 379.08 516.22 377.25 Z" />
</g>
<g id="#ba585aff">
<path fill="#ba585a" opacity="1.00" d=" M 430.38 394.71 C 439.56 393.46 449.20 394.92 457.00 400.11 C 463.77 404.85 467.97 412.38 470.73 419.99 C 473.72 432.07 468.99 444.83 460.98 453.94 C 456.16 457.62 450.76 460.84 444.86 462.40 C 436.47 462.74 427.41 463.56 419.93 458.96 C 411.73 453.46 405.09 444.99 403.57 435.05 C 403.20 427.66 402.38 419.80 406.22 413.09 C 411.58 404.33 419.70 396.02 430.38 394.71 M 431.60 395.99 C 419.84 397.75 409.81 406.83 406.07 418.00 C 401.40 431.13 406.29 447.01 417.54 455.25 C 426.99 462.33 440.40 463.66 451.01 458.43 C 462.85 453.03 470.60 439.96 469.85 427.01 C 469.51 415.69 462.72 404.65 452.58 399.50 C 446.19 396.21 438.73 394.57 431.60 395.99 Z" />
<path fill="#ba585a" opacity="1.00" d=" M 354.99 412.81 C 355.48 451.90 355.08 491.02 355.23 530.12 C 354.71 520.74 355.13 511.34 355.05 501.96 C 355.12 472.24 354.98 442.52 354.99 412.81 Z" />
</g>
<g id="#fffefeff">
<path fill="#fffefe" opacity="1.00" d=" M 431.60 395.99 C 438.73 394.57 446.19 396.21 452.58 399.50 C 462.72 404.65 469.51 415.69 469.85 427.01 C 470.60 439.96 462.85 453.03 451.01 458.43 C 440.40 463.66 426.99 462.33 417.54 455.25 C 406.29 447.01 401.40 431.13 406.07 418.00 C 409.81 406.83 419.84 397.75 431.60 395.99 M 431.91 414.13 C 421.84 417.64 421.12 433.80 431.04 437.96 C 439.58 442.75 450.95 434.59 449.58 425.01 C 449.38 416.44 439.58 410.98 431.91 414.13 Z" />
</g>
<g id="#bef4d4ff">
<path fill="#bef4d4" opacity="1.00" d=" M 353.67 403.97 C 353.60 401.84 354.02 399.75 354.71 397.75 C 354.72 398.12 354.76 398.87 354.77 399.25 C 355.02 403.76 354.85 408.29 354.99 412.81 C 354.98 442.52 355.12 472.24 355.05 501.96 C 355.13 511.34 354.71 520.74 355.23 530.12 C 355.25 530.64 355.30 531.67 355.32 532.19 C 353.53 530.27 353.83 527.44 353.66 525.03 C 353.73 484.68 353.62 444.32 353.67 403.97 Z" />
</g>
<g id="#1b974bff">
<path fill="#1b974b" opacity="1.00" d=" M 354.77 399.25 C 357.23 399.73 359.66 400.33 362.13 400.79 C 367.84 403.82 374.04 405.85 379.64 409.13 C 381.71 410.51 384.23 410.65 386.65 410.79 C 385.61 414.44 384.58 418.09 383.57 421.74 C 380.69 424.81 381.51 429.26 380.56 433.05 C 378.99 439.92 379.58 447.02 379.59 454.00 C 380.92 463.38 382.37 472.80 385.57 481.76 C 390.18 495.68 398.67 507.95 408.22 518.94 C 423.98 535.84 445.14 547.87 467.97 551.92 C 472.95 552.39 477.95 553.53 482.97 552.92 C 491.49 552.06 500.21 553.43 508.59 551.24 C 511.32 550.72 514.02 549.66 516.84 549.82 C 520.85 552.05 525.98 553.62 527.94 558.18 C 534.53 569.69 540.11 581.78 544.62 594.25 C 541.67 595.89 538.23 595.39 535.01 595.43 C 505.34 595.40 475.68 595.47 446.02 595.42 C 437.57 595.63 429.11 595.06 420.67 595.66 C 391.36 593.87 364.29 571.65 357.27 543.03 C 356.38 539.46 355.62 535.85 355.32 532.19 C 355.30 531.67 355.25 530.64 355.23 530.12 C 355.08 491.02 355.48 451.90 354.99 412.81 C 354.85 408.29 355.02 403.76 354.77 399.25 Z" />
</g>
<g id="#ad4949ff">
<path fill="#ad4949" opacity="1.00" d=" M 431.91 414.13 C 439.58 410.98 449.38 416.44 449.58 425.01 C 450.95 434.59 439.58 442.75 431.04 437.96 C 421.12 433.80 421.84 417.64 431.91 414.13 M 433.36 415.45 C 426.96 417.28 423.46 425.40 426.52 431.35 C 429.02 437.15 436.67 439.27 442.04 436.18 C 448.73 432.71 449.74 422.67 444.30 417.65 C 441.47 414.67 437.07 415.12 433.36 415.45 Z" />
<path fill="#ad4949" opacity="1.00" d=" M 771.39 712.88 C 774.06 713.43 778.34 714.36 778.44 717.76 C 776.74 722.86 768.80 721.83 766.64 717.50 C 769.59 718.95 772.80 720.00 776.08 718.99 C 776.27 715.91 773.38 714.58 771.39 712.88 Z" />
</g>
<g id="#2f7f53ff">
<path fill="#2f7f53" opacity="1.00" d=" M 578.88 426.51 C 579.52 421.61 575.99 417.19 577.32 412.35 C 579.49 417.42 580.58 422.88 581.65 428.27 C 576.27 428.31 571.01 429.90 566.66 433.08 C 566.43 432.76 565.96 432.12 565.72 431.80 C 569.71 429.15 574.24 427.56 578.88 426.51 Z" />
<path fill="#2f7f53" opacity="1.00" d=" M 691.71 693.69 C 699.90 693.74 708.09 693.59 716.28 693.69 C 716.29 695.69 716.21 697.70 715.93 699.70 C 715.65 699.38 715.10 698.74 714.82 698.41 C 714.71 697.32 714.65 696.21 714.61 695.14 C 707.55 694.92 700.46 694.78 693.42 695.40 C 692.74 702.74 693.21 710.11 693.18 717.46 C 692.93 721.26 692.78 725.08 693.15 728.89 C 699.92 729.28 706.72 728.97 713.48 728.57 C 713.61 727.46 713.75 726.35 713.90 725.25 C 709.40 725.06 704.79 725.40 700.46 723.97 C 705.84 723.55 711.25 723.81 716.64 723.99 C 716.60 726.07 716.54 728.16 716.44 730.26 C 708.21 730.10 699.97 730.22 691.75 730.19 C 691.69 718.02 691.81 705.86 691.71 693.69 Z" />
</g>
<g id="#e72e2dff">
<path fill="#e72e2d" opacity="1.00" d=" M 433.36 415.45 C 437.07 415.12 441.47 414.67 444.30 417.65 C 449.74 422.67 448.73 432.71 442.04 436.18 C 436.67 439.27 429.02 437.15 426.52 431.35 C 423.46 425.40 426.96 417.28 433.36 415.45 Z" />
</g>
<g id="#517e47ff">
<path fill="#517e47" opacity="1.00" d=" M 380.56 433.05 C 381.51 429.26 380.69 424.81 383.57 421.74 C 382.74 427.15 381.54 432.52 381.24 438.00 C 379.61 452.56 382.24 467.28 386.79 481.11 C 398.54 513.80 426.93 540.03 460.57 548.86 C 475.85 553.02 492.22 553.44 507.69 550.11 C 510.93 549.49 514.11 548.61 517.28 547.69 C 520.98 550.95 525.39 553.41 530.27 554.38 C 529.91 558.14 532.10 561.25 534.41 563.98 C 539.08 574.01 544.25 583.93 547.33 594.59 L 547.73 596.20 C 509.50 596.45 471.26 596.36 433.03 596.32 C 428.91 596.15 424.71 596.69 420.67 595.66 C 429.11 595.06 437.57 595.63 446.02 595.42 C 475.68 595.47 505.34 595.40 535.01 595.43 C 538.23 595.39 541.67 595.89 544.62 594.25 C 540.11 581.78 534.53 569.69 527.94 558.18 C 525.98 553.62 520.85 552.05 516.84 549.82 C 514.02 549.66 511.32 550.72 508.59 551.24 C 500.21 553.43 491.49 552.06 482.97 552.92 C 477.95 553.53 472.95 552.39 467.97 551.92 C 445.14 547.87 423.98 535.84 408.22 518.94 C 398.67 507.95 390.18 495.68 385.57 481.76 C 382.37 472.80 380.92 463.38 379.59 454.00 C 379.58 447.02 378.99 439.92 380.56 433.05 Z" />
</g>
<g id="#bb1e24ff">
<path fill="#bb1e24" opacity="1.00" d=" M 388.34 435.89 C 388.44 433.00 388.71 430.09 389.70 427.36 C 390.86 430.94 389.81 434.74 390.60 438.33 C 394.55 446.86 401.72 453.24 408.18 459.85 C 416.02 468.12 426.28 473.39 436.05 479.00 C 447.93 484.85 460.79 488.40 473.67 491.30 C 467.35 497.81 461.13 504.59 453.37 509.44 C 445.37 515.32 436.23 519.40 426.96 522.80 C 416.10 515.06 407.86 504.21 401.05 492.88 C 394.59 480.88 389.86 467.68 389.31 453.95 C 389.29 447.91 388.02 441.94 388.34 435.89 Z" />
</g>
<g id="#694730ff">
<path fill="#694730" opacity="1.00" d=" M 400.53 494.56 C 390.45 476.95 385.81 456.08 388.34 435.89 C 388.02 441.94 389.29 447.91 389.31 453.95 C 389.86 467.68 394.59 480.88 401.05 492.88 C 407.86 504.21 416.10 515.06 426.96 522.80 C 436.23 519.40 445.37 515.32 453.37 509.44 C 461.13 504.59 467.35 497.81 473.67 491.30 C 474.21 490.76 474.76 490.23 475.32 489.72 C 475.79 489.91 476.74 490.29 477.21 490.48 C 466.36 505.37 450.68 516.38 433.73 523.33 C 432.00 523.89 430.77 525.20 429.81 526.68 C 418.12 517.96 407.75 507.32 400.53 494.56 Z" />
</g>
<g id="#189247ff">
<path fill="#189247" opacity="1.00" d=" M 568.92 445.96 C 572.02 440.13 579.37 437.45 585.58 439.47 C 585.39 442.57 584.96 445.65 584.29 448.69 C 578.46 452.68 574.67 458.90 568.88 462.94 C 564.05 466.22 559.46 470.02 553.95 472.11 C 558.27 463.04 563.83 454.61 568.92 445.96 Z" />
</g>
<g id="#495430ff">
<path fill="#495430" opacity="1.00" d=" M 584.29 448.69 C 584.96 445.65 585.39 442.57 585.58 439.47 L 586.82 439.67 C 584.73 447.81 586.74 456.43 584.09 464.51 L 583.00 463.71 C 582.66 463.46 581.98 462.97 581.64 462.72 C 583.49 458.25 583.43 453.37 584.29 448.69 Z" />
</g>
<g id="#b83e3cff">
<path fill="#b83e3c" opacity="1.00" d=" M 586.82 439.67 C 589.39 440.70 591.68 442.42 593.24 444.73 C 597.12 450.35 600.04 456.55 603.64 462.35 C 609.18 471.45 614.84 480.49 620.07 489.78 C 626.28 500.97 633.26 511.73 639.50 522.91 C 641.98 526.93 642.38 532.17 640.29 536.44 C 638.29 541.27 633.10 544.33 627.95 544.26 C 596.96 544.25 565.97 544.36 534.98 544.24 C 530.76 544.47 526.93 542.27 524.17 539.25 C 527.31 537.69 530.56 536.39 533.88 535.25 C 531.93 536.84 530.02 538.49 528.09 540.10 C 530.14 541.55 532.44 542.76 535.04 542.53 C 564.38 542.53 593.72 542.45 623.06 542.51 C 627.99 542.82 633.72 542.02 636.91 537.82 C 640.02 533.17 638.56 527.34 636.50 522.60 C 631.73 512.06 625.02 502.57 619.55 492.40 C 612.37 479.11 603.63 466.76 596.47 453.47 C 594.49 449.88 592.45 446.12 588.93 443.80 C 587.83 448.46 587.80 453.28 587.14 458.01 C 586.81 461.02 586.02 464.37 587.84 467.10 C 590.45 471.49 593.44 475.64 595.83 480.16 C 602.59 492.85 610.61 504.81 617.73 517.29 C 618.90 519.18 619.02 521.52 618.49 523.64 C 616.77 525.99 613.54 525.60 610.99 525.76 C 592.31 525.62 573.63 525.74 554.95 525.56 C 552.49 525.58 550.06 525.98 547.71 526.64 C 548.29 525.68 548.87 524.71 549.43 523.74 C 563.27 523.91 577.12 523.77 590.96 523.82 C 599.37 524.05 607.87 524.70 616.24 523.57 C 616.60 522.94 617.32 521.68 617.68 521.05 C 609.27 505.77 599.73 491.15 591.13 475.98 C 588.80 472.14 586.65 468.19 584.09 464.51 C 586.74 456.43 584.73 447.81 586.82 439.67 Z" />
</g>
<g id="#eb2c2bff">
<path fill="#eb2c2b" opacity="1.00" d=" M 588.93 443.80 C 592.45 446.12 594.49 449.88 596.47 453.47 C 603.63 466.76 612.37 479.11 619.55 492.40 C 625.02 502.57 631.73 512.06 636.50 522.60 C 638.56 527.34 640.02 533.17 636.91 537.82 C 633.72 542.02 627.99 542.82 623.06 542.51 C 593.72 542.45 564.38 542.53 535.04 542.53 C 532.44 542.76 530.14 541.55 528.09 540.10 C 530.02 538.49 531.93 536.84 533.88 535.25 C 538.60 532.58 543.33 529.87 547.71 526.64 C 550.06 525.98 552.49 525.58 554.95 525.56 C 573.63 525.74 592.31 525.62 610.99 525.76 C 613.54 525.60 616.77 525.99 618.49 523.64 C 619.02 521.52 618.90 519.18 617.73 517.29 C 610.61 504.81 602.59 492.85 595.83 480.16 C 593.44 475.64 590.45 471.49 587.84 467.10 C 586.02 464.37 586.81 461.02 587.14 458.01 C 587.80 453.28 587.83 448.46 588.93 443.80 Z" />
</g>
<g id="#13713bff">
<path fill="#13713b" opacity="1.00" d=" M 568.88 462.94 C 574.67 458.90 578.46 452.68 584.29 448.69 C 583.43 453.37 583.49 458.25 581.64 462.72 C 581.98 462.97 582.66 463.46 583.00 463.71 C 581.57 463.75 579.72 463.26 579.01 464.91 C 568.36 482.10 558.34 499.68 547.74 516.91 C 546.74 518.38 546.06 520.04 545.94 521.83 C 546.37 522.17 547.22 522.84 547.65 523.18 C 540.64 529.70 531.78 533.75 523.11 537.56 C 521.43 533.79 520.74 529.26 522.53 525.41 C 524.26 521.64 526.60 518.19 528.63 514.59 C 536.55 501.46 544.16 488.16 551.91 474.94 C 552.57 474.00 552.99 472.79 553.95 472.11 C 559.46 470.02 564.05 466.22 568.88 462.94 Z" />
</g>
<g id="#fffffeff">
<path fill="#fffffe" opacity="1.00" d=" M 579.01 464.91 C 579.72 463.26 581.57 463.75 583.00 463.71 L 584.09 464.51 C 586.65 468.19 588.80 472.14 591.13 475.98 C 599.73 491.15 609.27 505.77 617.68 521.05 C 617.32 521.68 616.60 522.94 616.24 523.57 C 607.87 524.70 599.37 524.05 590.96 523.82 C 577.12 523.77 563.27 523.91 549.43 523.74 C 548.99 523.60 548.10 523.32 547.65 523.18 C 547.22 522.84 546.37 522.17 545.94 521.83 C 546.06 520.04 546.74 518.38 547.74 516.91 C 558.34 499.68 568.36 482.10 579.01 464.91 Z" />
</g>
<g id="#117039ff">
<path fill="#117039" opacity="1.00" d=" M 478.15 490.83 C 496.73 493.18 515.82 490.82 533.68 485.38 C 528.35 494.47 523.25 503.70 517.73 512.68 C 515.34 516.74 512.62 520.73 511.53 525.38 C 510.17 530.65 510.97 536.35 513.27 541.25 C 485.25 550.04 453.40 543.93 429.81 526.68 C 430.77 525.20 432.00 523.89 433.73 523.33 C 450.68 516.38 466.36 505.37 477.21 490.48 C 477.45 490.56 477.92 490.74 478.15 490.83 Z" />
</g>
<g id="#795034ff">
<path fill="#795034" opacity="1.00" d=" M 547.65 523.18 C 548.10 523.32 548.99 523.60 549.43 523.74 C 548.87 524.71 548.29 525.68 547.71 526.64 C 543.33 529.87 538.60 532.58 533.88 535.25 C 530.56 536.39 527.31 537.69 524.17 539.25 C 523.91 538.82 523.37 537.98 523.11 537.56 C 531.78 533.75 540.64 529.70 547.65 523.18 Z" />
</g>
<g id="#bdead0ff">
<path fill="#bdead0" opacity="1.00" d=" M 460.57 548.86 C 466.16 549.21 471.74 549.75 477.23 550.89 C 487.36 552.84 497.52 549.86 507.69 550.11 C 492.22 553.44 475.85 553.02 460.57 548.86 Z" />
</g>
<g id="#b43437ff">
<path fill="#b43437" opacity="1.00" d=" M 734.33 684.37 C 736.09 683.53 738.10 683.76 740.00 683.69 C 754.32 683.80 768.64 683.77 782.97 683.76 C 787.93 683.52 792.32 688.06 791.95 693.03 C 791.55 705.36 791.85 717.71 791.69 730.05 C 791.83 734.57 787.54 738.54 783.07 738.33 C 768.04 738.32 753.01 738.43 737.98 738.45 C 733.42 738.80 728.95 734.65 729.27 730.04 C 729.13 717.68 728.41 705.33 728.76 692.96 C 728.82 689.34 731.01 685.86 734.33 684.37 M 730.82 693.00 C 730.20 705.33 731.40 717.67 731.27 730.02 C 730.96 733.68 734.41 736.90 738.04 736.50 C 745.53 736.17 753.17 737.20 760.57 735.90 C 765.31 736.95 770.18 736.26 774.98 736.45 C 779.44 736.35 784.56 737.37 788.25 734.19 C 789.99 731.83 789.75 728.76 789.79 726.00 C 789.65 721.66 790.35 717.33 789.98 712.99 C 789.30 705.23 791.53 697.25 789.33 689.65 C 787.36 685.15 781.47 684.89 777.35 686.00 C 776.18 685.09 774.43 685.67 773.05 685.47 C 764.95 685.69 756.83 685.17 748.74 685.77 C 744.83 685.38 740.87 685.33 736.96 685.65 C 733.38 686.10 730.77 689.44 730.82 693.00 Z" />
</g>
<g id="#e62525ff">
<path fill="#e62525" opacity="1.00" d=" M 730.82 693.00 C 730.77 689.44 733.38 686.10 736.96 685.65 C 740.87 685.33 744.83 685.38 748.74 685.77 C 749.77 686.65 751.47 687.26 751.69 688.80 C 752.40 691.43 749.62 692.95 747.93 694.35 C 743.18 695.16 737.86 697.34 736.12 702.25 C 734.30 706.44 737.19 710.51 739.58 713.75 C 737.84 714.88 734.74 715.38 734.76 717.97 C 736.71 726.96 749.01 730.26 756.01 725.02 C 757.61 724.15 758.96 722.42 760.84 722.28 C 763.58 723.88 766.00 726.03 768.94 727.32 C 768.29 729.56 767.68 731.81 767.11 734.07 C 764.91 734.63 762.73 735.25 760.57 735.90 C 753.17 737.20 745.53 736.17 738.04 736.50 C 734.41 736.90 730.96 733.68 731.27 730.02 C 731.40 717.67 730.20 705.33 730.82 693.00 Z" />
</g>
<g id="#ec342eff">
<path fill="#ec342e" opacity="1.00" d=" M 748.74 685.77 C 756.83 685.17 764.95 685.69 773.05 685.47 C 774.43 685.67 776.18 685.09 777.35 686.00 C 777.68 686.32 778.33 686.96 778.66 687.28 C 779.32 687.33 780.00 687.37 780.70 687.41 C 779.11 691.13 775.78 693.65 771.82 694.37 C 766.93 694.49 763.30 697.74 760.03 700.97 C 757.13 697.07 752.84 694.54 747.93 694.35 C 749.62 692.95 752.40 691.43 751.69 688.80 C 751.47 687.26 749.77 686.65 748.74 685.77 Z" />
</g>
<g id="#e62b2cff">
<path fill="#e62b2c" opacity="1.00" d=" M 777.35 686.00 C 781.47 684.89 787.36 685.15 789.33 689.65 C 791.53 697.25 789.30 705.23 789.98 712.99 C 790.35 717.33 789.65 721.66 789.79 726.00 C 789.75 728.76 789.99 731.83 788.25 734.19 C 784.56 737.37 779.44 736.35 774.98 736.45 C 770.18 736.26 765.31 736.95 760.57 735.90 C 762.73 735.25 764.91 734.63 767.11 734.07 C 767.68 731.81 768.29 729.56 768.94 727.32 C 773.80 727.82 779.15 727.44 782.94 723.97 C 785.85 721.95 785.66 718.06 785.42 714.94 C 785.44 711.68 782.40 709.89 780.33 707.90 C 782.10 706.74 784.99 705.73 784.40 703.04 C 783.57 697.09 777.07 694.66 771.82 694.37 C 775.78 693.65 779.11 691.13 780.70 687.41 C 780.00 687.37 779.32 687.33 778.66 687.28 C 778.33 686.96 777.68 686.32 777.35 686.00 Z" />
</g>
<g id="#1d1724ff">
<path fill="#1d1724" opacity="1.00" d=" M 287.54 695.65 C 293.46 691.69 302.10 691.72 307.55 696.53 C 309.62 698.42 310.43 701.19 311.24 703.78 C 308.80 703.80 306.35 703.82 303.92 703.89 C 303.01 698.29 295.37 697.24 291.69 700.72 C 290.31 702.44 290.21 705.44 292.51 706.44 C 297.87 708.97 304.47 708.81 309.05 712.97 C 313.70 717.29 312.15 725.76 306.62 728.61 C 300.80 731.67 293.31 731.68 287.55 728.48 C 284.27 726.68 283.10 722.88 282.37 719.47 C 284.60 719.48 286.84 719.50 289.08 719.53 C 290.42 725.28 298.07 726.15 302.45 723.49 C 304.62 722.19 304.86 718.68 302.69 717.26 C 298.36 714.16 292.50 714.84 287.98 712.07 C 281.85 709.01 282.01 699.24 287.54 695.65 Z" />
</g>
<g id="#1c1725ff">
<path fill="#1c1725" opacity="1.00" d=" M 317.69 693.48 C 319.68 693.43 321.68 693.39 323.68 693.37 C 329.87 701.15 335.50 709.37 341.47 717.32 C 341.68 709.37 341.65 701.42 341.60 693.47 C 344.02 693.48 346.44 693.48 348.86 693.49 C 348.79 705.63 348.84 717.77 348.85 729.91 C 346.81 729.90 344.77 729.92 342.74 729.99 C 336.81 721.97 331.21 713.71 324.91 705.97 C 324.94 714.04 325.45 722.12 324.87 730.19 C 322.51 730.15 320.14 730.13 317.78 730.15 C 317.71 717.93 317.71 705.70 317.69 693.48 Z" />
</g>
<g id="#201a28ff">
<path fill="#201a28" opacity="1.00" d=" M 368.28 693.43 C 373.90 692.03 380.47 693.10 384.63 697.38 C 388.83 701.35 390.04 707.48 389.87 713.05 C 389.83 718.20 387.92 723.52 383.96 726.94 C 376.32 733.08 363.07 731.83 358.08 722.89 C 352.37 712.86 355.78 696.20 368.28 693.43 M 369.46 699.68 C 365.62 700.99 363.65 705.11 363.26 708.91 C 362.90 713.12 362.99 717.80 365.66 721.33 C 368.69 725.48 375.43 725.62 378.93 722.01 C 381.51 719.38 382.15 715.52 382.22 711.99 C 382.24 708.40 381.74 704.46 379.17 701.74 C 376.75 699.11 372.73 698.57 369.46 699.68 Z" />
</g>
<g id="#211b29ff">
<path fill="#211b29" opacity="1.00" d=" M 407.42 693.63 C 414.36 691.60 422.88 693.90 426.75 700.30 C 431.57 708.83 430.88 721.51 422.69 727.77 C 416.15 732.13 406.52 731.70 400.62 726.40 C 395.01 720.74 394.35 711.76 396.54 704.44 C 398.08 699.30 402.14 694.95 407.42 693.63 M 409.48 699.59 C 406.24 700.71 404.17 703.88 403.48 707.13 C 402.30 711.91 402.57 717.47 405.62 721.52 C 409.18 726.26 417.40 725.28 420.18 720.18 C 422.96 714.62 422.94 707.02 419.07 701.98 C 416.80 699.21 412.78 698.47 409.48 699.59 Z" />
</g>
<g id="#1d1625ff">
<path fill="#1d1625" opacity="1.00" d=" M 436.17 693.41 C 438.69 693.41 441.22 693.38 443.75 693.31 C 443.76 698.95 443.78 704.59 443.77 710.23 C 448.31 704.58 453.16 699.16 457.47 693.32 C 460.44 693.28 463.42 693.24 466.40 693.23 C 461.91 698.65 457.32 703.99 452.63 709.24 C 457.83 716.13 462.54 723.38 467.79 730.26 C 464.83 730.27 461.87 730.30 458.92 730.31 C 455.37 725.04 451.19 720.19 448.07 714.63 C 446.64 716.29 445.18 717.92 443.72 719.54 C 443.71 723.11 443.73 726.68 443.72 730.25 C 441.23 730.27 438.74 730.27 436.26 730.16 C 436.33 717.91 436.41 705.65 436.17 693.41 Z" />
</g>
<g id="#1f1c29ff">
<path fill="#1f1c29" opacity="1.00" d=" M 471.73 693.21 C 480.10 693.48 488.48 693.46 496.85 693.28 C 497.09 695.37 497.14 697.49 496.88 699.60 C 490.96 699.58 485.04 699.54 479.13 699.56 C 479.25 702.41 479.27 705.27 479.23 708.13 C 484.74 708.27 490.26 708.25 495.78 708.22 C 495.77 710.20 495.77 712.19 495.78 714.18 C 490.27 714.21 484.77 714.37 479.27 714.23 C 479.41 717.51 479.38 720.79 479.33 724.07 C 485.38 724.34 491.44 723.74 497.48 724.16 C 497.43 726.20 497.40 728.25 497.37 730.30 C 489.01 730.32 480.65 730.16 472.29 730.32 C 471.29 718.00 472.10 705.57 471.73 693.21 Z" />
</g>
<g id="#1e864aff">
<path fill="#1e864a" opacity="1.00" d=" M 554.95 694.96 C 560.09 692.10 566.64 692.44 571.76 695.17 C 574.90 696.88 576.34 700.40 577.09 703.72 C 574.64 703.72 572.20 703.69 569.76 703.63 C 568.64 698.03 560.59 697.07 557.48 701.40 C 556.89 703.00 556.82 705.45 558.63 706.34 C 564.03 709.22 571.04 708.82 575.61 713.31 C 579.94 718.39 577.07 726.84 571.09 729.20 C 565.38 731.54 558.18 731.48 552.99 727.89 C 550.26 726.09 549.44 722.71 549.09 719.67 C 551.22 719.65 553.36 719.61 555.51 719.59 C 556.67 721.43 557.51 724.07 559.98 724.50 C 563.18 724.94 567.14 725.11 569.45 722.41 C 570.26 720.53 570.08 717.87 568.06 716.84 C 563.18 713.93 556.64 714.77 552.39 710.65 C 547.83 706.27 549.56 697.86 554.95 694.96 Z" />
</g>
<g id="#1f894cff">
<path fill="#1f894c" opacity="1.00" d=" M 584.90 699.90 C 589.01 693.02 598.64 691.63 605.62 694.40 C 610.14 696.36 612.81 700.84 613.88 705.49 C 611.44 705.59 609.00 705.66 606.57 705.71 C 605.72 698.84 596.07 697.01 591.96 702.00 C 588.21 706.63 588.59 713.37 590.10 718.78 C 592.28 726.39 604.99 726.46 606.80 718.60 C 609.15 718.54 611.51 718.53 613.87 718.56 C 612.85 728.22 601.33 732.68 592.93 729.84 C 586.72 728.24 582.65 722.16 581.84 716.04 C 581.18 710.53 582.00 704.70 584.90 699.90 Z" />
</g>
<g id="#1a884cff">
<path fill="#1a884c" opacity="1.00" d=" M 630.46 693.61 C 636.90 692.19 644.36 694.26 648.24 699.82 C 652.70 706.54 652.80 715.84 648.93 722.84 C 643.60 732.80 627.28 733.37 621.08 724.01 C 616.79 717.31 616.81 708.38 620.37 701.38 C 622.30 697.38 626.19 694.59 630.46 693.61 M 632.41 699.54 C 628.18 700.59 625.95 705.05 625.48 709.07 C 624.96 713.62 625.18 718.92 628.66 722.34 C 632.50 726.08 639.64 724.85 642.17 720.17 C 645.15 714.57 645.06 706.97 640.93 701.97 C 638.89 699.49 635.42 698.83 632.41 699.54 Z" />
</g>
<g id="#1f1b28ff">
<path fill="#1f1b28" opacity="1.00" d=" M 503.70 693.27 C 509.11 693.54 514.53 693.40 519.95 693.50 C 524.39 693.47 529.32 695.79 530.79 700.25 C 533.05 705.93 531.36 713.17 525.69 716.13 C 528.21 720.80 530.67 725.52 532.98 730.31 C 530.31 730.27 527.66 730.28 525.00 730.28 C 523.04 725.98 520.65 721.89 518.90 717.50 C 516.32 717.49 513.75 717.54 511.18 717.58 C 511.26 721.82 511.17 726.07 511.10 730.32 C 508.64 730.28 506.17 730.27 503.71 730.28 C 503.59 717.94 503.71 705.61 503.70 693.27 M 510.84 699.57 C 510.96 703.51 510.91 707.45 510.84 711.40 C 514.24 711.53 517.69 711.75 521.07 711.18 C 525.69 709.49 525.40 701.81 521.12 699.84 C 517.72 699.28 514.26 699.54 510.84 699.57 Z" />
</g>
<g id="#1a8649ff">
<path fill="#1a8649" opacity="1.00" d=" M 657.69 693.66 C 664.75 694.25 672.23 692.39 678.98 695.03 C 687.61 698.45 687.14 712.00 679.23 716.06 C 681.57 720.83 684.32 725.39 686.68 730.17 C 684.02 730.17 681.38 730.17 678.74 730.21 C 676.54 725.99 674.45 721.72 672.19 717.55 C 669.85 717.55 667.52 717.58 665.19 717.63 C 664.89 721.84 665.86 726.25 664.51 730.32 C 662.26 730.19 660.03 730.15 657.79 730.16 C 657.64 717.99 657.69 705.83 657.69 693.66 M 665.23 699.52 C 665.00 703.53 664.66 707.54 665.13 711.55 C 668.45 711.65 671.81 711.84 675.11 711.25 C 679.58 709.04 679.12 701.07 674.13 699.79 C 671.18 699.43 668.19 699.58 665.23 699.52 Z" />
</g>
<g id="#219052ff">
<path fill="#219052" opacity="1.00" d=" M 693.42 695.40 C 700.46 694.78 707.55 694.92 714.61 695.14 C 714.65 696.21 714.71 697.32 714.82 698.41 C 715.10 698.74 715.65 699.38 715.93 699.70 L 715.99 699.78 C 710.39 699.65 704.80 699.76 699.20 699.69 C 699.16 702.60 699.15 705.51 699.19 708.42 C 704.58 708.41 709.97 708.37 715.37 708.44 C 715.36 710.38 715.37 712.33 715.39 714.29 C 709.95 714.56 704.47 714.08 699.07 714.66 C 697.10 715.58 695.17 716.59 693.18 717.46 C 693.21 710.11 692.74 702.74 693.42 695.40 Z" />
</g>
<g id="#ca3236ff">
<path fill="#ca3236" opacity="1.00" d=" M 736.12 702.25 C 737.86 697.34 743.18 695.16 747.93 694.35 C 752.84 694.54 757.13 697.07 760.03 700.97 C 763.30 697.74 766.93 694.49 771.82 694.37 C 777.07 694.66 783.57 697.09 784.40 703.04 C 784.99 705.73 782.10 706.74 780.33 707.90 C 782.40 709.89 785.44 711.68 785.42 714.94 C 785.66 718.06 785.85 721.95 782.94 723.97 C 779.15 727.44 773.80 727.82 768.94 727.32 C 766.00 726.03 763.58 723.88 760.84 722.28 C 758.96 722.42 757.61 724.15 756.01 725.02 C 749.01 730.26 736.71 726.96 734.76 717.97 C 734.74 715.38 737.84 714.88 739.58 713.75 C 737.19 710.51 734.30 706.44 736.12 702.25 M 738.35 701.34 C 736.49 704.38 737.47 708.66 740.30 710.78 C 743.89 713.60 749.11 712.66 752.67 715.53 C 753.87 716.37 753.37 717.99 753.45 719.23 C 750.29 721.25 745.81 721.50 742.71 719.25 C 742.59 718.62 742.35 717.37 742.23 716.74 C 740.54 716.70 738.85 716.68 737.18 716.68 C 736.65 720.75 740.13 724.38 744.05 724.84 C 748.60 725.70 754.40 725.54 757.47 721.54 C 759.29 719.46 758.89 716.48 758.51 713.97 C 759.62 714.89 760.79 715.93 762.23 716.32 C 761.82 719.09 763.09 721.92 765.49 723.39 C 770.07 726.03 776.03 725.94 780.68 723.51 C 784.08 721.56 784.47 717.06 783.38 713.67 C 780.78 709.05 774.90 709.26 770.56 707.44 C 768.64 706.81 766.55 704.29 768.51 702.53 C 771.43 700.12 776.97 700.59 778.07 704.73 C 779.69 704.75 781.32 704.74 782.97 704.73 C 782.42 694.88 766.30 693.67 762.72 702.11 C 762.08 703.81 762.38 705.66 762.63 707.42 C 761.92 706.46 761.20 705.53 760.48 704.61 C 758.50 706.40 755.99 707.32 753.35 707.48 C 754.70 708.41 757.39 709.28 756.58 711.47 C 753.01 708.70 748.13 708.96 744.37 706.65 C 742.24 705.39 743.22 702.13 745.30 701.42 C 748.36 699.70 752.14 701.68 753.35 704.76 C 755.11 704.78 756.88 704.70 758.65 704.55 C 757.37 695.07 742.94 693.84 738.35 701.34 Z" />
</g>
<g id="#fff6f6ff">
<path fill="#fff6f6" opacity="1.00" d=" M 738.35 701.34 C 742.94 693.84 757.37 695.07 758.65 704.55 C 756.88 704.70 755.11 704.78 753.35 704.76 C 752.14 701.68 748.36 699.70 745.30 701.42 C 743.22 702.13 742.24 705.39 744.37 706.65 C 748.13 708.96 753.01 708.70 756.58 711.47 C 757.24 712.27 757.86 713.12 758.51 713.97 C 758.89 716.48 759.29 719.46 757.47 721.54 C 754.40 725.54 748.60 725.70 744.05 724.84 C 740.13 724.38 736.65 720.75 737.18 716.68 C 738.85 716.68 740.54 716.70 742.23 716.74 C 742.35 717.37 742.59 718.62 742.71 719.25 C 745.81 721.50 750.29 721.25 753.45 719.23 C 753.37 717.99 753.87 716.37 752.67 715.53 C 749.11 712.66 743.89 713.60 740.30 710.78 C 737.47 708.66 736.49 704.38 738.35 701.34 Z" />
</g>
<g id="#fff5f7ff">
<path fill="#fff5f7" opacity="1.00" d=" M 762.72 702.11 C 766.30 693.67 782.42 694.88 782.97 704.73 C 781.32 704.74 779.69 704.75 778.07 704.73 C 776.97 700.59 771.43 700.12 768.51 702.53 C 766.55 704.29 768.64 706.81 770.56 707.44 C 774.90 709.26 780.78 709.05 783.38 713.67 C 784.47 717.06 784.08 721.56 780.68 723.51 C 776.03 725.94 770.07 726.03 765.49 723.39 C 763.09 721.92 761.82 719.09 762.23 716.32 C 763.70 716.67 765.22 716.90 766.64 717.50 C 768.80 721.83 776.74 722.86 778.44 717.76 C 778.34 714.36 774.06 713.43 771.39 712.88 C 767.79 712.41 764.41 710.69 762.63 707.42 C 762.38 705.66 762.08 703.81 762.72 702.11 Z" />
</g>
<g id="#fefefeff">
</g>
<g id="#fefffeff">
</g>
<g id="#f9fff9ff">
</g>
<g id="#d32226ff">
<path fill="#d32226" opacity="1.00" d=" M 760.48 704.61 C 761.20 705.53 761.92 706.46 762.63 707.42 C 764.41 710.69 767.79 712.41 771.39 712.88 C 773.38 714.58 776.27 715.91 776.08 718.99 C 772.80 720.00 769.59 718.95 766.64 717.50 C 765.22 716.90 763.70 716.67 762.23 716.32 C 760.79 715.93 759.62 714.89 758.51 713.97 C 757.86 713.12 757.24 712.27 756.58 711.47 C 757.39 709.28 754.70 708.41 753.35 707.48 C 755.99 707.32 758.50 706.40 760.48 704.61 Z" />
</g>
<g id="#198244ff">
<path fill="#198244" opacity="1.00" d=" M 693.18 717.46 C 695.17 716.59 697.10 715.58 699.07 714.66 C 699.24 717.63 699.24 720.62 699.13 723.60 C 699.46 723.69 700.13 723.88 700.46 723.97 C 704.79 725.40 709.40 725.06 713.90 725.25 C 713.75 726.35 713.61 727.46 713.48 728.57 C 706.72 728.97 699.92 729.28 693.15 728.89 C 692.78 725.08 692.93 721.26 693.18 717.46 Z" />
</g>
</svg>
